/* XPM */
static char *a0f5fc859dba4323dc78bdaa1ee2d2a6RaMNsnB9jT5Xtpyd[] = {
/* columns rows colors chars-per-pixel */
"32 32 7 1 ",
"  c #373737",
". c #733D3B",
"X c #615959",
"o c #BF4830",
"O c #C28569",
"+ c #5B6986",
"@ c #8B9BB5",
/* pixels */
"OOOOOOO@OOOOOOOOOOOOOOOO@OOOOOOO",
"ooooooO@.ooooooooooooooO@.oooooo",
"ooooooO@.ooooooooooooooO@.oooooo",
"ooooooO@.ooooooooooooooO@.oooooo",
"ooooooO@.ooooooooooooooO@.oooooo",
"ooooooO@.ooooooooooooooO@.oooooo",
"......O@...............O@.......",
"+++++++@+++ ++++++++++++@+++++++",
"OOOOOOOOOOOO XOOOOOOOOOOOXOO@OOO",
"oooooooooooO@Xooooooooo XooO@.oo",
"oooooooooooOX.oooooooo ooooO@.oo",
"oooooooooooO  oXoooooXXooooO@.oo",
"oooooooooooO@XXXXoXo XoooooO@.oo",
"oooooooooooO@.oooXoXoooooooO@.oo",
".......X...O@.... X........O@...",
"++++++++X ++@+++  ++++++++++@+++",
"OO@OOOOOO XOOOOXOOXOOOOOOOOOOOOO",
"oO@.oooooooXooXXoO@Xoooooooooooo",
"oO@.oooooo oo  oXO@.Xooooooooooo",
"oO@.oooooo oXooo O@XoXoooooooooo",
"oO@.oooooXoXoooooX@.Xo ooooooooo",
"oO@.oooooX oooooo @.oo Xoooooooo",
".O@...... ........@....X........",
"++@+++++X+++++++++@++++  +++++++",
"OOOOOOOOOX@OOOOOOOOOOOOOOX@OOOOO",
"oooooooooO@.oooooooooooooO@.oooo",
"oooooooooO@.oooooooooooooO@.oooo",
"oooooooooO@.oooooooooooooO@.oooo",
"oooooooooO@.oooooooooooooO@.oooo",
"oooooooooO@.oooooooooooooO@.oooo",
".........O@..............O@.....",
"++++++++++@+++++++++++++++@+++++"
};
